<svg width="112" height="100" viewBox="0 0 112 100" fill="none" xmlns="http://www.w3.org/2000/svg">
<path d="M56 22.1519C62.1139 22.1519 67.076 17.1899 67.076 11.0759C67.076 4.96203 62.1139 0 56 0C49.8861 0 44.9241 4.96203 44.9241 11.0759C44.9241 17.1456 49.8861 22.1519 56 22.1519ZM56 4.51899C59.5886 4.51899 62.557 7.44304 62.557 11.0759C62.557 14.6646 59.6329 17.6329 56 17.6329C52.4114 17.6329 49.4431 14.7089 49.4431 11.0759C49.4874 7.44304 52.4114 4.51899 56 4.51899Z" fill="#553EFF"/>
<path d="M56 22.1519C62.1139 22.1519 67.076 17.1899 67.076 11.0759C67.076 4.96203 62.1139 0 56 0C49.8861 0 44.9241 4.96203 44.9241 11.0759C44.9241 17.1456 49.8861 22.1519 56 22.1519ZM56 4.51899C59.5886 4.51899 62.557 7.44304 62.557 11.0759C62.557 14.6646 59.6329 17.6329 56 17.6329C52.4114 17.6329 49.4431 14.7089 49.4431 11.0759C49.4874 7.44304 52.4114 4.51899 56 4.51899Z" stroke="white"/>
<path d="M31.8987 65.1708C30.9684 65.3923 30.2595 66.2341 30.2152 67.2088L28.5316 93.1265C28.4873 94.1455 27.6456 94.8986 26.6266 94.8986H13.7785C12.7595 94.8986 11.9177 94.1012 11.8734 93.1265L10.1456 67.2531C10.1013 66.3227 9.43671 65.5252 8.55063 65.2594C8.06329 65.1265 6.64557 64.6834 6.42405 64.4176C6.24684 64.1518 6.15823 62.6898 6.11392 61.9366L4.56329 34.5125C6.77848 33.848 10.4114 32.6961 12.3165 32.0758L18.6519 38.0125C19.538 38.81 20.8671 38.81 21.7532 38.0125L28.0886 32.0758C28.4642 32.1831 28.8885 32.3229 29.3517 32.4756C29.6535 32.575 29.9718 32.6798 30.3038 32.7847C31.5 33.1834 32.7848 32.5189 33.1392 31.3227C33.538 30.1265 32.8734 28.8417 31.6772 28.4872C29.7722 27.867 28.2215 27.3796 28.2215 27.3796C27.4241 27.1138 26.5823 27.3353 25.962 27.867L20.2025 33.272L14.443 27.867C13.8228 27.291 12.981 27.1138 12.1835 27.3796C12.1835 27.3796 6.11392 29.329 3.05696 30.2594C1.1519 30.8353 0 32.3417 0 34.3353V34.8227L1.50633 61.848C1.50633 61.848 1.50633 62.2467 1.55063 62.3353C1.81646 66.3227 2.3924 67.7847 5.71519 69.0695L7.31013 93.4366C7.53165 96.8037 10.3671 99.4619 13.7342 99.4619H26.5823C29.9494 99.4619 32.7848 96.8037 33.0063 93.4366L34.6456 68.1834C34.8228 67.7404 34.8228 67.2087 34.6899 66.7214C34.3797 65.5252 33.0949 64.8606 31.8987 65.1708Z" fill="#553EFF"/>
<path d="M31.8987 65.1708C30.9684 65.3923 30.2595 66.2341 30.2152 67.2088L28.5316 93.1265C28.4873 94.1455 27.6456 94.8986 26.6266 94.8986H13.7785C12.7595 94.8986 11.9177 94.1012 11.8734 93.1265L10.1456 67.2531C10.1013 66.3227 9.43671 65.5252 8.55063 65.2594C8.06329 65.1265 6.64557 64.6834 6.42405 64.4176C6.24684 64.1518 6.15823 62.6898 6.11392 61.9366L4.56329 34.5125C6.77848 33.848 10.4114 32.6961 12.3165 32.0758L18.6519 38.0125C19.538 38.81 20.8671 38.81 21.7532 38.0125L28.0886 32.0758C28.4642 32.1831 28.8885 32.3229 29.3517 32.4756C29.6535 32.575 29.9718 32.6798 30.3038 32.7847C31.5 33.1834 32.7848 32.5189 33.1392 31.3227C33.538 30.1265 32.8734 28.8417 31.6772 28.4872C29.7722 27.867 28.2215 27.3796 28.2215 27.3796C27.4241 27.1138 26.5823 27.3353 25.962 27.867L20.2025 33.272L14.443 27.867C13.8228 27.291 12.981 27.1138 12.1835 27.3796C12.1835 27.3796 6.11392 29.329 3.05696 30.2594C1.1519 30.8353 0 32.3417 0 34.3353V34.8227L1.50633 61.848C1.50633 61.848 1.50633 62.2467 1.55063 62.3353C1.81646 66.3227 2.3924 67.7847 5.71519 69.0695L7.31013 93.4366C7.53165 96.8037 10.3671 99.4619 13.7342 99.4619H26.5823C29.9494 99.4619 32.7848 96.8037 33.0063 93.4366L34.6456 68.1834C34.8228 67.7404 34.8228 67.2087 34.6899 66.7214C34.3797 65.5252 33.0949 64.8606 31.8987 65.1708Z" stroke="white"/>
<path d="M20.1582 23.7024C26.2721 23.7024 31.2342 18.7404 31.2342 12.6265C31.2342 6.51256 26.2721 1.55054 20.1582 1.55054C14.0443 1.55054 9.08228 6.51256 9.08228 12.6265C9.08228 18.7404 14.0886 23.7024 20.1582 23.7024ZM20.1582 6.11383C23.7468 6.11383 26.7152 9.03788 26.7152 12.6708C26.7152 16.3037 23.7911 19.2278 20.1582 19.2278C16.5696 19.2278 13.6013 16.3037 13.6013 12.6708C13.6013 9.03788 16.5696 6.11383 20.1582 6.11383Z" fill="#553EFF"/>
<path d="M20.1582 23.7024C26.2721 23.7024 31.2342 18.7404 31.2342 12.6265C31.2342 6.51256 26.2721 1.55054 20.1582 1.55054C14.0443 1.55054 9.08228 6.51256 9.08228 12.6265C9.08228 18.7404 14.0886 23.7024 20.1582 23.7024ZM20.1582 6.11383C23.7468 6.11383 26.7152 9.03788 26.7152 12.6708C26.7152 16.3037 23.7911 19.2278 20.1582 19.2278C16.5696 19.2278 13.6013 16.3037 13.6013 12.6708C13.6013 9.03788 16.5696 6.11383 20.1582 6.11383Z" stroke="white"/>
<path d="M73.1455 30.171C70.0885 29.2406 64.0189 27.2913 64.0189 27.2913C63.2214 27.0254 62.3796 27.247 61.7594 27.7786L55.9999 33.1837L50.2404 27.7786C49.6201 27.2026 48.7784 27.0254 47.9809 27.2913C47.9809 27.2913 41.9113 29.2406 38.8543 30.171C36.905 30.747 35.7974 32.2533 35.7974 34.2469L37.3037 61.8482L37.348 62.2913C37.6138 66.2786 38.1898 67.7849 41.5126 69.0254L43.1075 93.3925C43.329 96.7596 46.1645 99.4178 49.5315 99.4178H62.4239C65.791 99.4178 68.6265 96.7596 68.848 93.3925L70.4429 69.0254C73.7657 67.7406 74.3417 66.2343 74.6075 62.2913L76.1581 34.6457V34.2469C76.2024 32.209 75.0948 30.747 73.1455 30.171ZM70.1328 61.4938L70.0885 61.9368C70.0442 62.6457 69.9556 64.0634 69.7784 64.3292C69.5569 64.5951 68.0948 65.0381 67.6075 65.171C66.7214 65.4368 66.0569 66.2343 66.0126 67.209L64.329 93.0824C64.2847 94.1014 63.4429 94.8545 62.4239 94.8545H49.5315C48.5126 94.8545 47.7151 94.0571 47.6265 93.0824L45.9429 67.209C45.8986 66.2786 45.2341 65.4811 44.348 65.171C43.8607 65.0381 42.4429 64.5951 42.2214 64.3292C42.0526 64.0761 41.9642 62.7379 41.9179 62.0369C41.9156 62.0019 41.9134 61.9685 41.9113 61.9368L40.3607 34.5128V34.3799C42.5758 33.7153 46.2088 32.5634 48.1138 31.9432L54.4493 37.8799C55.3353 38.6773 56.6645 38.6773 57.5505 37.8799L63.886 31.9875C65.791 32.6077 69.4239 33.7596 71.6391 34.4242L70.1328 61.4938Z" fill="#553EFF"/>
<path d="M73.1455 30.171C70.0885 29.2406 64.0189 27.2913 64.0189 27.2913C63.2214 27.0254 62.3796 27.247 61.7594 27.7786L55.9999 33.1837L50.2404 27.7786C49.6201 27.2026 48.7784 27.0254 47.9809 27.2913C47.9809 27.2913 41.9113 29.2406 38.8543 30.171C36.905 30.747 35.7974 32.2533 35.7974 34.2469L37.3037 61.8482L37.348 62.2913C37.6138 66.2786 38.1898 67.7849 41.5126 69.0254L43.1075 93.3925C43.329 96.7596 46.1645 99.4178 49.5315 99.4178H62.4239C65.791 99.4178 68.6265 96.7596 68.848 93.3925L70.4429 69.0254C73.7657 67.7406 74.3417 66.2343 74.6075 62.2913L76.1581 34.6457V34.2469C76.2024 32.209 75.0948 30.747 73.1455 30.171ZM70.1328 61.4938L70.0885 61.9368C70.0442 62.6457 69.9556 64.0634 69.7784 64.3292C69.5569 64.5951 68.0948 65.0381 67.6075 65.171C66.7214 65.4368 66.0569 66.2343 66.0126 67.209L64.329 93.0824C64.2847 94.1014 63.4429 94.8545 62.4239 94.8545H49.5315C48.5126 94.8545 47.7151 94.0571 47.6265 93.0824L45.9429 67.209C45.8986 66.2786 45.2341 65.4811 44.348 65.171C43.8607 65.0381 42.4429 64.5951 42.2214 64.3292C42.0526 64.0761 41.9642 62.7379 41.9179 62.0369C41.9156 62.0019 41.9134 61.9685 41.9113 61.9368L40.3607 34.5128V34.3799C42.5758 33.7153 46.2088 32.5634 48.1138 31.9432L54.4493 37.8799C55.3353 38.6773 56.6645 38.6773 57.5505 37.8799L63.886 31.9875C65.791 32.6077 69.4239 33.7596 71.6391 34.4242L70.1328 61.4938Z" stroke="white"/>
<path d="M108.987 30.171C105.93 29.2406 99.8606 27.2913 99.8606 27.2913C99.0632 27.0254 98.2214 27.247 97.6011 27.7786L91.8416 33.1837L86.0822 27.7786C85.4619 27.2026 84.6201 27.0254 83.8227 27.2913C83.8227 27.2913 82.272 27.7786 80.367 28.3988C79.1708 28.7976 78.5062 30.0381 78.9049 31.2343C79.3037 32.4305 80.5442 33.0951 81.7404 32.6963C82.0724 32.5915 82.3907 32.4866 82.6924 32.3872C83.1556 32.2346 83.58 32.0948 83.9556 31.9875L90.291 37.9242C91.1771 38.7216 92.5062 38.7216 93.3923 37.9242L99.7277 31.9875C101.073 32.4256 103.259 33.1069 105.223 33.7191C106.039 33.9735 106.817 34.216 107.481 34.4242L105.975 61.4938L105.93 61.9368C105.886 62.6457 105.797 64.0634 105.62 64.3292C105.399 64.5951 103.937 65.0381 103.449 65.171C102.563 65.4368 101.899 66.2343 101.854 67.209L100.171 93.0824C100.082 94.1014 99.2404 94.8545 98.2657 94.8545H85.3733C84.3986 94.8545 83.5568 94.0571 83.4682 93.0824L81.7404 67.209C81.6961 66.2786 80.9429 65.4811 80.0568 65.171C78.8606 64.7723 77.6644 65.4368 77.2657 66.633C77.1328 67.0761 77.1328 67.5634 77.2657 67.9621L78.9492 93.3925C79.1708 96.7596 81.9619 99.4178 85.3733 99.4178H98.2657C101.633 99.4178 104.468 96.7596 104.69 93.3925L106.285 69.0254C109.607 67.7406 110.183 66.2786 110.449 62.3356C110.449 62.1583 110.494 61.7596 110.494 61.7596L112 34.6014V34.2026C112 32.2533 110.892 30.747 108.987 30.171Z" fill="#553EFF"/>
<path d="M108.987 30.171C105.93 29.2406 99.8606 27.2913 99.8606 27.2913C99.0632 27.0254 98.2214 27.247 97.6011 27.7786L91.8416 33.1837L86.0822 27.7786C85.4619 27.2026 84.6201 27.0254 83.8227 27.2913C83.8227 27.2913 82.272 27.7786 80.367 28.3988C79.1708 28.7976 78.5062 30.0381 78.9049 31.2343C79.3037 32.4305 80.5442 33.0951 81.7404 32.6963C82.0724 32.5915 82.3907 32.4866 82.6924 32.3872C83.1556 32.2346 83.58 32.0948 83.9556 31.9875L90.291 37.9242C91.1771 38.7216 92.5062 38.7216 93.3923 37.9242L99.7277 31.9875C101.073 32.4256 103.259 33.1069 105.223 33.7191C106.039 33.9735 106.817 34.216 107.481 34.4242L105.975 61.4938L105.93 61.9368C105.886 62.6457 105.797 64.0634 105.62 64.3292C105.399 64.5951 103.937 65.0381 103.449 65.171C102.563 65.4368 101.899 66.2343 101.854 67.209L100.171 93.0824C100.082 94.1014 99.2404 94.8545 98.2657 94.8545H85.3733C84.3986 94.8545 83.5568 94.0571 83.4682 93.0824L81.7404 67.209C81.6961 66.2786 80.9429 65.4811 80.0568 65.171C78.8606 64.7723 77.6644 65.4368 77.2657 66.633C77.1328 67.0761 77.1328 67.5634 77.2657 67.9621L78.9492 93.3925C79.1708 96.7596 81.9619 99.4178 85.3733 99.4178H98.2657C101.633 99.4178 104.468 96.7596 104.69 93.3925L106.285 69.0254C109.607 67.7406 110.183 66.2786 110.449 62.3356C110.449 62.1583 110.494 61.7596 110.494 61.7596L112 34.6014V34.2026C112 32.2533 110.892 30.747 108.987 30.171Z" stroke="white"/>
<path d="M91.8418 23.7024C97.9557 23.7024 102.918 18.7404 102.918 12.6265C102.918 6.51256 97.9557 1.55054 91.8418 1.55054C85.7279 1.55054 80.7659 6.51256 80.7659 12.6265C80.7659 18.7404 85.7279 23.7024 91.8418 23.7024ZM91.8418 6.11383C95.4304 6.11383 98.3988 9.03788 98.3988 12.6708C98.3988 16.3037 95.4747 19.2278 91.8418 19.2278C88.2532 19.2278 85.2849 16.3037 85.2849 12.6708C85.2849 9.03788 88.2089 6.11383 91.8418 6.11383Z" fill="#553EFF"/>
<path d="M91.8418 23.7024C97.9557 23.7024 102.918 18.7404 102.918 12.6265C102.918 6.51256 97.9557 1.55054 91.8418 1.55054C85.7279 1.55054 80.7659 6.51256 80.7659 12.6265C80.7659 18.7404 85.7279 23.7024 91.8418 23.7024ZM91.8418 6.11383C95.4304 6.11383 98.3988 9.03788 98.3988 12.6708C98.3988 16.3037 95.4747 19.2278 91.8418 19.2278C88.2532 19.2278 85.2849 16.3037 85.2849 12.6708C85.2849 9.03788 88.2089 6.11383 91.8418 6.11383Z" stroke="white"/>
</svg>
